<?xml version="1.0" encoding="UTF-8" standalone="no"?><svg xmlns="http://www.w3.org/2000/svg" xmlns:xlink="http://www.w3.org/1999/xlink" contentStyleType="text/css" height="1254px" preserveAspectRatio="none" style="width:1098px;height:1254px;background:#F9F9F9;" version="1.1" viewBox="0 0 1098 1254" width="1098px" zoomAndPan="magnify"><defs/><g><rect fill="#FFFFFF" height="209.4961" style="stroke:#393939;stroke-width:1.5;" width="15" x="198" y="144.8438"/><rect fill="#FFFFFF" height="248.0449" style="stroke:#393939;stroke-width:1.5;" width="15" x="198" y="798.1816"/><rect fill="#FFFFFF" height="232.8457" style="stroke:#393939;stroke-width:1.5;" width="15" x="753" y="446.2383"/><rect height="231.7031" rx="5.25" ry="5.25" style="stroke:#393939;stroke-width:1.5;fill:none;" width="966.75" x="121.5" y="945.1289"/><line style="stroke:#393939;stroke-width:0.75;fill:none;stroke-dasharray:5.0,5.0;" x1="205.5" x2="205.5" y1="54.4453" y2="1202.332"/><line style="stroke:#393939;stroke-width:0.75;fill:none;stroke-dasharray:5.0,5.0;" x1="483" x2="483" y1="54.4453" y2="1202.332"/><line style="stroke:#393939;stroke-width:0.75;fill:none;stroke-dasharray:5.0,5.0;" x1="760.5" x2="760.5" y1="54.4453" y2="1202.332"/><line style="stroke:#393939;stroke-width:0.75;fill:none;stroke-dasharray:5.0,5.0;" x1="1016.25" x2="1016.25" y1="54.4453" y2="1202.332"/><rect fill="#006341" height="45.4453" rx="5.25" ry="5.25" style="stroke:#191919;stroke-width:2.25;" width="138" x="136.5" y="7.5"/><text fill="#F9F9F9" font-family="sans-serif" font-size="21" lengthAdjust="spacing" textLength="117" x="147" y="37.4927">ThreadWait</text><rect fill="#006341" height="45.4453" rx="5.25" ry="5.25" style="stroke:#191919;stroke-width:2.25;" width="138" x="136.5" y="1200.832"/><text fill="#F9F9F9" font-family="sans-serif" font-size="21" lengthAdjust="spacing" textLength="117" x="147" y="1230.8247">ThreadWait</text><rect fill="#006341" height="45.4453" rx="5.25" ry="5.25" style="stroke:#191919;stroke-width:2.25;" width="84" x="441" y="7.5"/><text fill="#F9F9F9" font-family="sans-serif" font-size="21" lengthAdjust="spacing" textLength="63" x="451.5" y="37.4927">Mutex</text><rect fill="#006341" height="45.4453" rx="5.25" ry="5.25" style="stroke:#191919;stroke-width:2.25;" width="84" x="441" y="1200.832"/><text fill="#F9F9F9" font-family="sans-serif" font-size="21" lengthAdjust="spacing" textLength="63" x="451.5" y="1230.8247">Mutex</text><rect fill="#006341" height="45.4453" rx="5.25" ry="5.25" style="stroke:#191919;stroke-width:2.25;" width="156" x="682.5" y="7.5"/><text fill="#F9F9F9" font-family="sans-serif" font-size="21" lengthAdjust="spacing" textLength="135" x="693" y="37.4927">ThreadSignal</text><rect fill="#006341" height="45.4453" rx="5.25" ry="5.25" style="stroke:#191919;stroke-width:2.25;" width="156" x="682.5" y="1200.832"/><text fill="#F9F9F9" font-family="sans-serif" font-size="21" lengthAdjust="spacing" textLength="135" x="693" y="1230.8247">ThreadSignal</text><rect fill="#006341" height="45.4453" rx="5.25" ry="5.25" style="stroke:#191919;stroke-width:2.25;" width="106.5" x="963.75" y="7.5"/><text fill="#F9F9F9" font-family="sans-serif" font-size="21" lengthAdjust="spacing" textLength="85.5" x="974.25" y="37.4927">Condvar</text><rect fill="#006341" height="45.4453" rx="5.25" ry="5.25" style="stroke:#191919;stroke-width:2.25;" width="106.5" x="963.75" y="1200.832"/><text fill="#F9F9F9" font-family="sans-serif" font-size="21" lengthAdjust="spacing" textLength="85.5" x="974.25" y="1230.8247">Condvar</text><rect fill="#FFFFFF" height="209.4961" style="stroke:#393939;stroke-width:1.5;" width="15" x="198" y="144.8438"/><rect fill="#FFFFFF" height="248.0449" style="stroke:#393939;stroke-width:1.5;" width="15" x="198" y="798.1816"/><rect fill="#FFFFFF" height="232.8457" style="stroke:#393939;stroke-width:1.5;" width="15" x="753" y="446.2383"/><polygon fill="#191919" points="465,95.1445,480,101.1445,465,107.1445,471,101.1445" style="stroke:#191919;stroke-width:1.5;"/><line style="stroke:#191919;stroke-width:1.5;" x1="205.5" x2="474" y1="101.1445" y2="101.1445"/><text fill="#000000" font-family="sans-serif" font-size="19.5" lengthAdjust="spacing" textLength="210" x="216" y="93.5457">pthread_mutex_lock()</text><polygon fill="#191919" points="229.5,138.8438,214.5,144.8438,229.5,150.8438,223.5,144.8438" style="stroke:#191919;stroke-width:1.5;"/><line style="stroke:#191919;stroke-width:1.5;stroke-dasharray:2.0,2.0;" x1="220.5" x2="481.5" y1="144.8438" y2="144.8438"/><text fill="#000000" font-family="sans-serif" font-size="19.5" lengthAdjust="spacing" textLength="94.5" x="238.5" y="137.2449">0 (locked)</text><polygon fill="#191919" points="499.5,187.043,484.5,193.043,499.5,199.043,493.5,193.043" style="stroke:#191919;stroke-width:1.5;"/><line style="stroke:#191919;stroke-width:1.5;" x1="490.5" x2="759" y1="193.043" y2="193.043"/><text fill="#000000" font-family="sans-serif" font-size="19.5" lengthAdjust="spacing" textLength="210" x="508.5" y="185.4441">pthread_mutex_lock()</text><path d="M768,169.5938 L768,196.5938 A5.25,5.25 0 0 0 773.25,201.8438 L869.25,201.8438 A5.25,5.25 0 0 0 874.5,196.5938 L874.5,179.3438 L859.5,164.3438 L773.25,164.3438 A5.25,5.25 0 0 0 768,169.5938 " fill="#E5E5E5" style="stroke:#181818;stroke-width:2.25;"/><path d="M859.5,164.3438 L859.5,176.7188 A2.625,2.625 0 0 0 862.125,179.3438 L874.5,179.3438 L859.5,164.3438 " fill="#E5E5E5" style="stroke:#181818;stroke-width:2.25;"/><text fill="#191919" font-family="sans-serif" font-size="19.5" lengthAdjust="spacing" textLength="75" x="777" y="189.9441">Blocked</text><line style="stroke:#191919;stroke-width:1.5;" x1="213" x2="276" y1="286.6406" y2="286.6406"/><line style="stroke:#191919;stroke-width:1.5;" x1="276" x2="276" y1="286.6406" y2="306.1406"/><line style="stroke:#191919;stroke-width:1.5;" x1="214.5" x2="276" y1="306.1406" y2="306.1406"/><polygon fill="#191919" points="229.5,300.1406,214.5,306.1406,229.5,312.1406,223.5,306.1406" style="stroke:#191919;stroke-width:1.5;"/><text fill="#000000" font-family="sans-serif" font-size="19.5" lengthAdjust="spacing" textLength="120" x="223.5" y="233.6433">Safely check</text><text fill="#000000" font-family="sans-serif" font-size="19.5" lengthAdjust="spacing" textLength="115.5" x="223.5" y="256.3425">shared data</text><text fill="#000000" font-family="sans-serif" font-size="19.5" lengthAdjust="spacing" textLength="87" x="223.5" y="279.0417">condition</text><polygon fill="#191919" points="999,348.3398,1014,354.3398,999,360.3398,1005,354.3398" style="stroke:#191919;stroke-width:1.5;"/><line style="stroke:#191919;stroke-width:1.5;" x1="205.5" x2="1008" y1="354.3398" y2="354.3398"/><text fill="#000000" font-family="sans-serif" font-size="19.5" lengthAdjust="spacing" textLength="195" x="216" y="346.741">pthread_cond_wait()</text><path d="M25.5,330.8906 L25.5,357.8906 A5.25,5.25 0 0 0 30.75,363.1406 L185.25,363.1406 A5.25,5.25 0 0 0 190.5,357.8906 L190.5,340.6406 L175.5,325.6406 L30.75,325.6406 A5.25,5.25 0 0 0 25.5,330.8906 " fill="#E5E5E5" style="stroke:#181818;stroke-width:2.25;"/><path d="M175.5,325.6406 L175.5,338.0156 A2.625,2.625 0 0 0 178.125,340.6406 L190.5,340.6406 L175.5,325.6406 " fill="#E5E5E5" style="stroke:#181818;stroke-width:2.25;"/><text fill="#191919" font-family="sans-serif" font-size="19.5" lengthAdjust="spacing" textLength="133.5" x="34.5" y="351.241">Wait for signal</text><polygon fill="#191919" points="499.5,396.5391,484.5,402.5391,499.5,408.5391,493.5,402.5391" style="stroke:#191919;stroke-width:1.5;"/><line style="stroke:#191919;stroke-width:1.5;stroke-dasharray:2.0,2.0;" x1="490.5" x2="1015.5" y1="402.5391" y2="402.5391"/><text fill="#000000" font-family="sans-serif" font-size="19.5" lengthAdjust="spacing" textLength="61.5" x="508.5" y="394.9402">unlock</text><polygon fill="#191919" points="735,440.2383,750,446.2383,735,452.2383,741,446.2383" style="stroke:#191919;stroke-width:1.5;"/><line style="stroke:#191919;stroke-width:1.5;stroke-dasharray:2.0,2.0;" x1="483" x2="744" y1="446.2383" y2="446.2383"/><text fill="#000000" font-family="sans-serif" font-size="19.5" lengthAdjust="spacing" textLength="94.5" x="493.5" y="438.6394">0 (locked)</text><line style="stroke:#191919;stroke-width:1.5;" x1="768" x2="831" y1="512.6367" y2="512.6367"/><line style="stroke:#191919;stroke-width:1.5;" x1="831" x2="831" y1="512.6367" y2="532.1367"/><line style="stroke:#191919;stroke-width:1.5;" x1="769.5" x2="831" y1="532.1367" y2="532.1367"/><polygon fill="#191919" points="784.5,526.1367,769.5,532.1367,784.5,538.1367,778.5,532.1367" style="stroke:#191919;stroke-width:1.5;"/><text fill="#000000" font-family="sans-serif" font-size="19.5" lengthAdjust="spacing" textLength="129" x="778.5" y="482.3386">Safely modify</text><text fill="#000000" font-family="sans-serif" font-size="19.5" lengthAdjust="spacing" textLength="115.5" x="778.5" y="505.0378">shared data</text><polygon fill="#191919" points="499.5,569.8359,484.5,575.8359,499.5,581.8359,493.5,575.8359" style="stroke:#191919;stroke-width:1.5;"/><line style="stroke:#191919;stroke-width:1.5;" x1="490.5" x2="751.5" y1="575.8359" y2="575.8359"/><text fill="#000000" font-family="sans-serif" font-size="19.5" lengthAdjust="spacing" textLength="234" x="508.5" y="568.2371">pthread_mutex_unlock()</text><polygon fill="#191919" points="735,613.5352,750,619.5352,735,625.5352,741,619.5352" style="stroke:#191919;stroke-width:1.5;"/><line style="stroke:#191919;stroke-width:1.5;stroke-dasharray:2.0,2.0;" x1="483" x2="744" y1="619.5352" y2="619.5352"/><text fill="#000000" font-family="sans-serif" font-size="19.5" lengthAdjust="spacing" textLength="118.5" x="493.5" y="611.9363">0 (unlocked)</text><polygon fill="#191919" points="999,673.084,1014,679.084,999,685.084,1005,679.084" style="stroke:#191919;stroke-width:1.5;"/><line style="stroke:#191919;stroke-width:1.5;" x1="760.5" x2="1008" y1="679.084" y2="679.084"/><text fill="#000000" font-family="sans-serif" font-size="19.5" lengthAdjust="spacing" textLength="213" x="771" y="671.4851">pthread_cond_signal()</text><path d="M507,644.2852 L507,693.7852 A5.25,5.25 0 0 0 512.25,699.0352 L740.25,699.0352 A5.25,5.25 0 0 0 745.5,693.7852 L745.5,654.0352 L730.5,639.0352 L512.25,639.0352 A5.25,5.25 0 0 0 507,644.2852 " fill="#E5E5E5" style="stroke:#181818;stroke-width:2.25;"/><path d="M730.5,639.0352 L730.5,651.4102 A2.625,2.625 0 0 0 733.125,654.0352 L745.5,654.0352 L730.5,639.0352 " fill="#E5E5E5" style="stroke:#181818;stroke-width:2.25;"/><text fill="#191919" font-family="sans-serif" font-size="19.5" lengthAdjust="spacing" textLength="162" x="516" y="664.6355">Data is modified,</text><text fill="#191919" font-family="sans-serif" font-size="19.5" lengthAdjust="spacing" textLength="207" x="516" y="687.3347">signal waiting threads</text><polygon fill="#191919" points="499.5,732.6328,484.5,738.6328,499.5,744.6328,493.5,738.6328" style="stroke:#191919;stroke-width:1.5;"/><line style="stroke:#191919;stroke-width:1.5;stroke-dasharray:2.0,2.0;" x1="490.5" x2="1015.5" y1="738.6328" y2="738.6328"/><text fill="#000000" font-family="sans-serif" font-size="19.5" lengthAdjust="spacing" textLength="37.5" x="508.5" y="731.0339">lock</text><polygon fill="#191919" points="229.5,792.1816,214.5,798.1816,229.5,804.1816,223.5,798.1816" style="stroke:#191919;stroke-width:1.5;"/><line style="stroke:#191919;stroke-width:1.5;stroke-dasharray:2.0,2.0;" x1="220.5" x2="1015.5" y1="798.1816" y2="798.1816"/><text fill="#000000" font-family="sans-serif" font-size="19.5" lengthAdjust="spacing" textLength="112.5" x="238.5" y="790.5828">0 (signaled)</text><path d="M7.5,763.3828 L7.5,812.8828 A5.25,5.25 0 0 0 12.75,818.1328 L185.25,818.1328 A5.25,5.25 0 0 0 190.5,812.8828 L190.5,773.1328 L175.5,758.1328 L12.75,758.1328 A5.25,5.25 0 0 0 7.5,763.3828 " fill="#E5E5E5" style="stroke:#181818;stroke-width:2.25;"/><path d="M175.5,758.1328 L175.5,770.5078 A2.625,2.625 0 0 0 178.125,773.1328 L190.5,773.1328 L175.5,758.1328 " fill="#E5E5E5" style="stroke:#181818;stroke-width:2.25;"/><text fill="#191919" font-family="sans-serif" font-size="19.5" lengthAdjust="spacing" textLength="151.5" x="16.5" y="783.7332">Signal received,</text><text fill="#191919" font-family="sans-serif" font-size="19.5" lengthAdjust="spacing" textLength="150" x="16.5" y="806.4324">mutex is locked</text><line style="stroke:#191919;stroke-width:1.5;" x1="213" x2="276" y1="903.1289" y2="903.1289"/><line style="stroke:#191919;stroke-width:1.5;" x1="276" x2="276" y1="903.1289" y2="922.6289"/><line style="stroke:#191919;stroke-width:1.5;" x1="214.5" x2="276" y1="922.6289" y2="922.6289"/><polygon fill="#191919" points="229.5,916.6289,214.5,922.6289,229.5,928.6289,223.5,922.6289" style="stroke:#191919;stroke-width:1.5;"/><text fill="#000000" font-family="sans-serif" font-size="19.5" lengthAdjust="spacing" textLength="120" x="223.5" y="850.1316">Safely check</text><text fill="#000000" font-family="sans-serif" font-size="19.5" lengthAdjust="spacing" textLength="115.5" x="223.5" y="872.8308">shared data</text><text fill="#000000" font-family="sans-serif" font-size="19.5" lengthAdjust="spacing" textLength="87" x="223.5" y="895.53">condition</text><path d="M126.75,945.1289 L217.5,945.1289 L217.5,955.8281 L202.5,970.8281 L121.5,970.8281 L121.5,950.3789 A5.25,5.25 0 0 1 126.75,945.1289 " fill="#EEEEEE" style="stroke:#393939;stroke-width:2.25;"/><rect fill="none" height="231.7031" rx="5.25" ry="5.25" style="stroke:#393939;stroke-width:1.5;" width="966.75" x="121.5" y="945.1289"/><text fill="#191919" font-family="sans-serif" font-size="19.5" font-weight="bold" lengthAdjust="spacing" textLength="28.5" x="144" y="964.7292">alt</text><text fill="#393939" font-family="sans-serif" font-size="16.5" font-weight="bold" lengthAdjust="spacing" textLength="310.5" x="240" y="963.4446">[condition passes, stop waiting]</text><polygon fill="#191919" points="465,996.5273,480,1002.5273,465,1008.5273,471,1002.5273" style="stroke:#191919;stroke-width:1.5;"/><line style="stroke:#191919;stroke-width:1.5;" x1="213" x2="474" y1="1002.5273" y2="1002.5273"/><text fill="#000000" font-family="sans-serif" font-size="19.5" lengthAdjust="spacing" textLength="234" x="223.5" y="994.9285">pthread_mutex_unlock()</text><polygon fill="#191919" points="222,1040.2266,207,1046.2266,222,1052.2266,216,1046.2266" style="stroke:#191919;stroke-width:1.5;"/><line style="stroke:#191919;stroke-width:1.5;stroke-dasharray:2.0,2.0;" x1="213" x2="481.5" y1="1046.2266" y2="1046.2266"/><text fill="#000000" font-family="sans-serif" font-size="19.5" lengthAdjust="spacing" textLength="118.5" x="231" y="1038.6277">0 (unlocked)</text><line style="stroke:#393939;stroke-width:1.5;stroke-dasharray:2.0,2.0;" x1="121.5" x2="1088.25" y1="1059.7266" y2="1059.7266"/><text fill="#393939" font-family="sans-serif" font-size="16.5" font-weight="bold" lengthAdjust="spacing" textLength="289.5" x="129" y="1075.0422">[condition fails, keep waiting]</text><polygon fill="#191919" points="999,1106.1328,1014,1112.1328,999,1118.1328,1005,1112.1328" style="stroke:#191919;stroke-width:1.5;"/><line style="stroke:#191919;stroke-width:1.5;" x1="205.5" x2="1008" y1="1112.1328" y2="1112.1328"/><text fill="#000000" font-family="sans-serif" font-size="19.5" lengthAdjust="spacing" textLength="195" x="216" y="1104.5339">pthread_cond_wait()</text><path d="M147,1136.8828 L147,1163.8828 A5.25,5.25 0 0 0 152.25,1169.1328 L1067.25,1169.1328 A5.25,5.25 0 0 0 1072.5,1163.8828 L1072.5,1146.6328 L1057.5,1131.6328 L152.25,1131.6328 A5.25,5.25 0 0 0 147,1136.8828 " fill="#E5E5E5" style="stroke:#181818;stroke-width:2.25;"/><path d="M1057.5,1131.6328 L1057.5,1144.0078 A2.625,2.625 0 0 0 1060.125,1146.6328 L1072.5,1146.6328 L1057.5,1131.6328 " fill="#E5E5E5" style="stroke:#181818;stroke-width:2.25;"/><text fill="#191919" font-family="sans-serif" font-size="19.5" lengthAdjust="spacing" textLength="424.5" x="391.125" y="1157.2332">Process repeats from "Wait for signal" above</text></g></svg>