<?xml version="1.0" encoding="UTF-8" standalone="no"?><svg xmlns="http://www.w3.org/2000/svg" xmlns:xlink="http://www.w3.org/1999/xlink" contentStyleType="text/css" height="469.5px" preserveAspectRatio="none" style="width:1014px;height:469px;background:#F9F9F9;" version="1.1" viewBox="0 0 1014 469" width="1014px" zoomAndPan="magnify"><defs/><g><rect fill="#FFFFFF" height="258.9961" style="stroke:#393939;stroke-width:1.5;" width="15" x="204" y="144.8438"/><rect fill="#FF0000" height="123.3984" style="stroke:#393939;stroke-width:1.5;" width="15" x="211.5" y="280.4414"/><rect fill="#FFFFFF" height="171.5977" style="stroke:#393939;stroke-width:1.5;" width="15" x="703.5" y="232.2422"/><rect fill="#FF0000" height="70.6992" style="stroke:#393939;stroke-width:1.5;" width="15" x="711" y="333.1406"/><line style="stroke:#393939;stroke-width:0.75;stroke-dasharray:5.0,5.0;" x1="211.5" x2="211.5" y1="54.4453" y2="417.3398"/><line style="stroke:#393939;stroke-width:0.75;stroke-dasharray:5.0,5.0;" x1="456.75" x2="456.75" y1="54.4453" y2="417.3398"/><line style="stroke:#393939;stroke-width:0.75;stroke-dasharray:5.0,5.0;" x1="711" x2="711" y1="54.4453" y2="417.3398"/><line style="stroke:#393939;stroke-width:0.75;stroke-dasharray:5.0,5.0;" x1="956.25" x2="956.25" y1="54.4453" y2="417.3398"/><rect fill="#006341" height="45.4453" rx="5.25" ry="5.25" style="stroke:#191919;stroke-width:2.25;" width="108" x="157.5" y="7.5"/><text fill="#F9F9F9" font-family="sans-serif" font-size="21" lengthAdjust="spacing" textLength="87" x="168" y="37.4927">Thread1</text><rect fill="#006341" height="45.4453" rx="5.25" ry="5.25" style="stroke:#191919;stroke-width:2.25;" width="108" x="157.5" y="415.8398"/><text fill="#F9F9F9" font-family="sans-serif" font-size="21" lengthAdjust="spacing" textLength="87" x="168" y="445.8325">Thread1</text><rect fill="#006341" height="45.4453" rx="5.25" ry="5.25" style="stroke:#191919;stroke-width:2.25;" width="97.5" x="408.75" y="7.5"/><text fill="#F9F9F9" font-family="sans-serif" font-size="21" lengthAdjust="spacing" textLength="76.5" x="419.25" y="37.4927">Mutex1</text><rect fill="#006341" height="45.4453" rx="5.25" ry="5.25" style="stroke:#191919;stroke-width:2.25;" width="97.5" x="408.75" y="415.8398"/><text fill="#F9F9F9" font-family="sans-serif" font-size="21" lengthAdjust="spacing" textLength="76.5" x="419.25" y="445.8325">Mutex1</text><rect fill="#006341" height="45.4453" rx="5.25" ry="5.25" style="stroke:#191919;stroke-width:2.25;" width="108" x="657" y="7.5"/><text fill="#F9F9F9" font-family="sans-serif" font-size="21" lengthAdjust="spacing" textLength="87" x="667.5" y="37.4927">Thread2</text><rect fill="#006341" height="45.4453" rx="5.25" ry="5.25" style="stroke:#191919;stroke-width:2.25;" width="108" x="657" y="415.8398"/><text fill="#F9F9F9" font-family="sans-serif" font-size="21" lengthAdjust="spacing" textLength="87" x="667.5" y="445.8325">Thread2</text><rect fill="#006341" height="45.4453" rx="5.25" ry="5.25" style="stroke:#191919;stroke-width:2.25;" width="97.5" x="908.25" y="7.5"/><text fill="#F9F9F9" font-family="sans-serif" font-size="21" lengthAdjust="spacing" textLength="76.5" x="918.75" y="37.4927">Mutex2</text><rect fill="#006341" height="45.4453" rx="5.25" ry="5.25" style="stroke:#191919;stroke-width:2.25;" width="97.5" x="908.25" y="415.8398"/><text fill="#F9F9F9" font-family="sans-serif" font-size="21" lengthAdjust="spacing" textLength="76.5" x="918.75" y="445.8325">Mutex2</text><rect fill="#FFFFFF" height="258.9961" style="stroke:#393939;stroke-width:1.5;" width="15" x="204" y="144.8438"/><rect fill="#FF0000" height="123.3984" style="stroke:#393939;stroke-width:1.5;" width="15" x="211.5" y="280.4414"/><rect fill="#FFFFFF" height="171.5977" style="stroke:#393939;stroke-width:1.5;" width="15" x="703.5" y="232.2422"/><rect fill="#FF0000" height="70.6992" style="stroke:#393939;stroke-width:1.5;" width="15" x="711" y="333.1406"/><polygon fill="#191919" points="439.5,95.1445,454.5,101.1445,439.5,107.1445,445.5,101.1445" style="stroke:#191919;stroke-width:1.5;"/><line style="stroke:#191919;stroke-width:1.5;" x1="211.5" x2="448.5" y1="101.1445" y2="101.1445"/><text fill="#000000" font-family="sans-serif" font-size="19.5" lengthAdjust="spacing" textLength="210" x="222" y="93.5457">pthread_mutex_lock()</text><polygon fill="#191919" points="235.5,138.8438,220.5,144.8438,235.5,150.8438,229.5,144.8438" style="stroke:#191919;stroke-width:1.5;"/><line style="stroke:#191919;stroke-width:1.5;stroke-dasharray:2.0,2.0;" x1="226.5" x2="456" y1="144.8438" y2="144.8438"/><text fill="#000000" font-family="sans-serif" font-size="19.5" lengthAdjust="spacing" textLength="94.5" x="244.5" y="137.2449">0 (locked)</text><polygon fill="#191919" points="939,182.543,954,188.543,939,194.543,945,188.543" style="stroke:#191919;stroke-width:1.5;"/><line style="stroke:#191919;stroke-width:1.5;" x1="711" x2="948" y1="188.543" y2="188.543"/><text fill="#000000" font-family="sans-serif" font-size="19.5" lengthAdjust="spacing" textLength="210" x="721.5" y="180.9441">pthread_mutex_lock()</text><polygon fill="#191919" points="735,226.2422,720,232.2422,735,238.2422,729,232.2422" style="stroke:#191919;stroke-width:1.5;"/><line style="stroke:#191919;stroke-width:1.5;stroke-dasharray:2.0,2.0;" x1="726" x2="955.5" y1="232.2422" y2="232.2422"/><text fill="#000000" font-family="sans-serif" font-size="19.5" lengthAdjust="spacing" textLength="94.5" x="744" y="224.6433">0 (locked)</text><polygon fill="#191919" points="939,274.4414,954,280.4414,939,286.4414,945,280.4414" style="stroke:#191919;stroke-width:1.5;"/><line style="stroke:#191919;stroke-width:1.5;" x1="226.5" x2="948" y1="280.4414" y2="280.4414"/><text fill="#000000" font-family="sans-serif" font-size="19.5" lengthAdjust="spacing" textLength="210" x="237" y="272.8425">pthread_mutex_lock()</text><path d="M7.5,256.9922 L7.5,283.9922 A5.25,5.25 0 0 0 12.75,289.2422 L191.25,289.2422 A5.25,5.25 0 0 0 196.5,283.9922 L196.5,266.7422 L181.5,251.7422 L12.75,251.7422 A5.25,5.25 0 0 0 7.5,256.9922 " fill="#E5E5E5" style="stroke:#181818;stroke-width:2.25;"/><path d="M181.5,251.7422 L181.5,264.1172 A2.625,2.625 0 0 0 184.125,266.7422 L196.5,266.7422 L181.5,251.7422 " fill="#E5E5E5" style="stroke:#181818;stroke-width:2.25;"/><text fill="#191919" font-family="sans-serif" font-size="19.5" lengthAdjust="spacing" textLength="157.5" x="16.5" y="277.3425">Thread1 blocked</text><polygon fill="#191919" points="474,327.1406,459,333.1406,474,339.1406,468,333.1406" style="stroke:#191919;stroke-width:1.5;"/><line style="stroke:#191919;stroke-width:1.5;" x1="465" x2="709.5" y1="333.1406" y2="333.1406"/><text fill="#000000" font-family="sans-serif" font-size="19.5" lengthAdjust="spacing" textLength="210" x="483" y="325.5417">pthread_mutex_lock()</text><path d="M733.5,309.6914 L733.5,336.6914 A5.25,5.25 0 0 0 738.75,341.9414 L917.25,341.9414 A5.25,5.25 0 0 0 922.5,336.6914 L922.5,319.4414 L907.5,304.4414 L738.75,304.4414 A5.25,5.25 0 0 0 733.5,309.6914 " fill="#E5E5E5" style="stroke:#181818;stroke-width:2.25;"/><path d="M907.5,304.4414 L907.5,316.8164 A2.625,2.625 0 0 0 910.125,319.4414 L922.5,319.4414 L907.5,304.4414 " fill="#E5E5E5" style="stroke:#181818;stroke-width:2.25;"/><text fill="#191919" font-family="sans-serif" font-size="19.5" lengthAdjust="spacing" textLength="157.5" x="742.5" y="330.0417">Thread2 blocked</text><path d="M163.5,362.3906 L163.5,389.3906 A5.25,5.25 0 0 0 168.75,394.6406 L998.25,394.6406 A5.25,5.25 0 0 0 1003.5,389.3906 L1003.5,372.1406 L988.5,357.1406 L168.75,357.1406 A5.25,5.25 0 0 0 163.5,362.3906 " fill="#E5E5E5" style="stroke:#181818;stroke-width:2.25;"/><path d="M988.5,357.1406 L988.5,369.5156 A2.625,2.625 0 0 0 991.125,372.1406 L1003.5,372.1406 L988.5,357.1406 " fill="#E5E5E5" style="stroke:#181818;stroke-width:2.25;"/><text fill="#191919" font-family="sans-serif" font-size="19.5" lengthAdjust="spacing" textLength="120" x="517.125" y="382.741">Deadlocked!</text></g></svg>