<?xml version="1.0" encoding="UTF-8" standalone="no"?><svg xmlns="http://www.w3.org/2000/svg" xmlns:xlink="http://www.w3.org/1999/xlink" contentStyleType="text/css" height="604.5px" preserveAspectRatio="none" style="width:978px;height:604px;background:#F9F9F9;" version="1.1" viewBox="0 0 978 604" width="978px" zoomAndPan="magnify"><defs/><g><rect fill="#FFFFFF" height="167.2969" style="stroke:#393939;stroke-width:1.5;" width="15" x="202.5" y="172.043"/><rect fill="#FFFFFF" height="114.5977" style="stroke:#393939;stroke-width:1.5;" width="15" x="757.5" y="410.2383"/><line style="stroke:#393939;stroke-width:0.75;stroke-dasharray:5.0,5.0;" x1="210" x2="210" y1="54.4453" y2="551.8359"/><line style="stroke:#393939;stroke-width:0.75;stroke-dasharray:5.0,5.0;" x1="487.5" x2="487.5" y1="54.4453" y2="551.8359"/><line style="stroke:#393939;stroke-width:0.75;stroke-dasharray:5.0,5.0;" x1="765" x2="765" y1="54.4453" y2="551.8359"/><rect fill="#006341" height="45.4453" rx="5.25" ry="5.25" style="stroke:#191919;stroke-width:2.25;" width="108" x="156" y="7.5"/><text fill="#F9F9F9" font-family="sans-serif" font-size="21" lengthAdjust="spacing" textLength="87" x="166.5" y="37.4927">Thread1</text><rect fill="#006341" height="45.4453" rx="5.25" ry="5.25" style="stroke:#191919;stroke-width:2.25;" width="108" x="156" y="550.3359"/><text fill="#F9F9F9" font-family="sans-serif" font-size="21" lengthAdjust="spacing" textLength="87" x="166.5" y="580.3286">Thread1</text><rect fill="#006341" height="45.4453" rx="5.25" ry="5.25" style="stroke:#191919;stroke-width:2.25;" width="84" x="445.5" y="7.5"/><text fill="#F9F9F9" font-family="sans-serif" font-size="21" lengthAdjust="spacing" textLength="63" x="456" y="37.4927">Mutex</text><rect fill="#006341" height="45.4453" rx="5.25" ry="5.25" style="stroke:#191919;stroke-width:2.25;" width="84" x="445.5" y="550.3359"/><text fill="#F9F9F9" font-family="sans-serif" font-size="21" lengthAdjust="spacing" textLength="63" x="456" y="580.3286">Mutex</text><rect fill="#006341" height="45.4453" rx="5.25" ry="5.25" style="stroke:#191919;stroke-width:2.25;" width="108" x="711" y="7.5"/><text fill="#F9F9F9" font-family="sans-serif" font-size="21" lengthAdjust="spacing" textLength="87" x="721.5" y="37.4927">Thread2</text><rect fill="#006341" height="45.4453" rx="5.25" ry="5.25" style="stroke:#191919;stroke-width:2.25;" width="108" x="711" y="550.3359"/><text fill="#F9F9F9" font-family="sans-serif" font-size="21" lengthAdjust="spacing" textLength="87" x="721.5" y="580.3286">Thread2</text><rect fill="#FFFFFF" height="167.2969" style="stroke:#393939;stroke-width:1.5;" width="15" x="202.5" y="172.043"/><rect fill="#FFFFFF" height="114.5977" style="stroke:#393939;stroke-width:1.5;" width="15" x="757.5" y="410.2383"/><polygon fill="#191919" points="469.5,95.1445,484.5,101.1445,469.5,107.1445,475.5,101.1445" style="stroke:#191919;stroke-width:1.5;"/><line style="stroke:#191919;stroke-width:1.5;" x1="210" x2="478.5" y1="101.1445" y2="101.1445"/><text fill="#000000" font-family="sans-serif" font-size="19.5" lengthAdjust="spacing" textLength="210" x="220.5" y="93.5457">pthread_mutex_lock()</text><polygon fill="#191919" points="234,166.043,219,172.043,234,178.043,228,172.043" style="stroke:#191919;stroke-width:1.5;"/><line style="stroke:#191919;stroke-width:1.5;stroke-dasharray:2.0,2.0;" x1="225" x2="486" y1="172.043" y2="172.043"/><text fill="#000000" font-family="sans-serif" font-size="19.5" lengthAdjust="spacing" textLength="94.5" x="243" y="164.4441">0 (locked)</text><path d="M7.5,125.8945 L7.5,197.8945 A5.25,5.25 0 0 0 12.75,203.1445 L189.75,203.1445 A5.25,5.25 0 0 0 195,197.8945 L195,135.6445 L180,120.6445 L12.75,120.6445 A5.25,5.25 0 0 0 7.5,125.8945 " fill="#E5E5E5" style="stroke:#181818;stroke-width:2.25;"/><path d="M180,120.6445 L180,133.0195 A2.625,2.625 0 0 0 182.625,135.6445 L195,135.6445 L180,120.6445 " fill="#E5E5E5" style="stroke:#181818;stroke-width:2.25;"/><text fill="#191919" font-family="sans-serif" font-size="19.5" lengthAdjust="spacing" textLength="124.5" x="16.5" y="146.2449">Thread1 safe</text><text fill="#191919" font-family="sans-serif" font-size="19.5" lengthAdjust="spacing" textLength="91.5" x="16.5" y="168.9441">access to</text><text fill="#191919" font-family="sans-serif" font-size="19.5" lengthAdjust="spacing" textLength="156" x="16.5" y="191.6433">shared resource</text><polygon fill="#191919" points="504,241.4414,489,247.4414,504,253.4414,498,247.4414" style="stroke:#191919;stroke-width:1.5;"/><line style="stroke:#191919;stroke-width:1.5;" x1="495" x2="763.5" y1="247.4414" y2="247.4414"/><text fill="#000000" font-family="sans-serif" font-size="19.5" lengthAdjust="spacing" textLength="210" x="513" y="239.8425">pthread_mutex_lock()</text><path d="M772.5,223.9922 L772.5,250.9922 A5.25,5.25 0 0 0 777.75,256.2422 L956.25,256.2422 A5.25,5.25 0 0 0 961.5,250.9922 L961.5,233.7422 L946.5,218.7422 L777.75,218.7422 A5.25,5.25 0 0 0 772.5,223.9922 " fill="#E5E5E5" style="stroke:#181818;stroke-width:2.25;"/><path d="M946.5,218.7422 L946.5,231.1172 A2.625,2.625 0 0 0 949.125,233.7422 L961.5,233.7422 L946.5,218.7422 " fill="#E5E5E5" style="stroke:#181818;stroke-width:2.25;"/><text fill="#191919" font-family="sans-serif" font-size="19.5" lengthAdjust="spacing" textLength="157.5" x="781.5" y="244.3425">Thread2 blocked</text><polygon fill="#191919" points="469.5,289.6406,484.5,295.6406,469.5,301.6406,475.5,295.6406" style="stroke:#191919;stroke-width:1.5;"/><line style="stroke:#191919;stroke-width:1.5;" x1="217.5" x2="478.5" y1="295.6406" y2="295.6406"/><text fill="#000000" font-family="sans-serif" font-size="19.5" lengthAdjust="spacing" textLength="234" x="228" y="288.0417">pthread_mutex_unlock()</text><polygon fill="#191919" points="226.5,333.3398,211.5,339.3398,226.5,345.3398,220.5,339.3398" style="stroke:#191919;stroke-width:1.5;"/><line style="stroke:#191919;stroke-width:1.5;stroke-dasharray:2.0,2.0;" x1="217.5" x2="486" y1="339.3398" y2="339.3398"/><text fill="#000000" font-family="sans-serif" font-size="19.5" lengthAdjust="spacing" textLength="118.5" x="235.5" y="331.741">0 (unlocked)</text><polygon fill="#191919" points="739.5,404.2383,754.5,410.2383,739.5,416.2383,745.5,410.2383" style="stroke:#191919;stroke-width:1.5;"/><line style="stroke:#191919;stroke-width:1.5;stroke-dasharray:2.0,2.0;" x1="487.5" x2="748.5" y1="410.2383" y2="410.2383"/><text fill="#000000" font-family="sans-serif" font-size="19.5" lengthAdjust="spacing" textLength="94.5" x="498" y="402.6394">0 (locked)</text><path d="M780,364.0898 L780,436.0898 A5.25,5.25 0 0 0 785.25,441.3398 L962.25,441.3398 A5.25,5.25 0 0 0 967.5,436.0898 L967.5,373.8398 L952.5,358.8398 L785.25,358.8398 A5.25,5.25 0 0 0 780,364.0898 " fill="#E5E5E5" style="stroke:#181818;stroke-width:2.25;"/><path d="M952.5,358.8398 L952.5,371.2148 A2.625,2.625 0 0 0 955.125,373.8398 L967.5,373.8398 L952.5,358.8398 " fill="#E5E5E5" style="stroke:#181818;stroke-width:2.25;"/><text fill="#191919" font-family="sans-serif" font-size="19.5" lengthAdjust="spacing" textLength="124.5" x="789" y="384.4402">Thread2 safe</text><text fill="#191919" font-family="sans-serif" font-size="19.5" lengthAdjust="spacing" textLength="91.5" x="789" y="407.1394">access to</text><text fill="#191919" font-family="sans-serif" font-size="19.5" lengthAdjust="spacing" textLength="156" x="789" y="429.8386">shared resource</text><polygon fill="#191919" points="504,475.1367,489,481.1367,504,487.1367,498,481.1367" style="stroke:#191919;stroke-width:1.5;"/><line style="stroke:#191919;stroke-width:1.5;" x1="495" x2="756" y1="481.1367" y2="481.1367"/><text fill="#000000" font-family="sans-serif" font-size="19.5" lengthAdjust="spacing" textLength="234" x="513" y="473.5378">pthread_mutex_unlock()</text><polygon fill="#191919" points="747,518.8359,762,524.8359,747,530.8359,753,524.8359" style="stroke:#191919;stroke-width:1.5;"/><line style="stroke:#191919;stroke-width:1.5;stroke-dasharray:2.0,2.0;" x1="487.5" x2="756" y1="524.8359" y2="524.8359"/><text fill="#000000" font-family="sans-serif" font-size="19.5" lengthAdjust="spacing" textLength="118.5" x="498" y="517.2371">0 (unlocked)</text></g></svg>